<?xml version="1.0" encoding="UTF-8" standalone="no"?>
<!-- Created with Inkscape (http://www.inkscape.org/) -->

<svg
   width="512"
   height="512"
   viewBox="0 0 512 512"
   version="1.1"
   id="svg1"
   sodipodi:docname="jlabs-logo.svg"
   inkscape:version="1.3.2 (091e20e, 2023-11-25)"
   xmlns:inkscape="http://www.inkscape.org/namespaces/inkscape"
   xmlns:sodipodi="http://sodipodi.sourceforge.net/DTD/sodipodi-0.dtd"
   xmlns="http://www.w3.org/2000/svg"
   xmlns:svg="http://www.w3.org/2000/svg">
  <sodipodi:namedview
     id="namedview1"
     pagecolor="#ffffff"
     bordercolor="#000000"
     borderopacity="0.25"
     inkscape:showpageshadow="2"
     inkscape:pageopacity="0.0"
     inkscape:pagecheckerboard="0"
     inkscape:deskcolor="#d1d1d1"
     inkscape:zoom="0.83792791"
     inkscape:cx="-63.847975"
     inkscape:cy="420.08387"
     inkscape:window-width="1272"
     inkscape:window-height="755"
     inkscape:window-x="115"
     inkscape:window-y="67"
     inkscape:window-maximized="0"
     inkscape:current-layer="layer1" />
  <defs
     id="defs1" />
  <g
     id="layer1">
    <path
       style="fill:#000000;fill-opacity:5.98384e-08;stroke:#73c2fb;stroke-width:40;stroke-dasharray:none;stroke-opacity:1"
       d="M 346.24891,256.30664 472.26657,359.20179 346.24891,475.97043"
       id="path5" />
    <path
       d="m 164.84929,40.131576 -0.29687,214.099614 c -16.98778,23.51515 -41.72108,48.95528 -66.246086,73.96679 22.396156,-20.4716 45.835986,-48.67835 77.291006,-46.96679 24.36374,1.3257 42.13432,20.1106 61.44531,34.2246 13.21402,9.65785 29.79828,16.79104 46.41016,14.17774 L 283.6657,40.131576 Z m 66.33008,107.101564 a 52.356609,52.356609 0 0 1 52.35742,52.35742 52.356609,52.356609 0 0 1 -52.35742,52.35547 52.356609,52.356609 0 0 1 -52.35547,-52.35547 52.356609,52.356609 0 0 1 52.35547,-52.35742 z"
       style="fill:#73c2fb;fill-opacity:1;stroke:#73c2fb;stroke-width:20;stroke-dasharray:none;stroke-opacity:1"
       id="path50" />
    <path
       id="path75"
       style="fill:#ff5f1f;fill-opacity:1;stroke:#ff5f1f;stroke-width:20;stroke-dasharray:none;stroke-opacity:0.99705"
       d="m 172.67156,281.15697 c -29.99326,0.11773 -52.66898,27.20917 -74.365236,47.04101 -17.071039,17.40969 -34.080854,34.6497 -48.14062,50.73047 -31.184028,35.66661 -42.1187664,57.84602 -19.425781,80.6875 7.887451,7.93905 24.927042,12.63672 36.136719,12.63672 H 283.34929 l 0.10352,-142.61914 c -16.61186,2.6133 -33.19615,-4.51989 -46.41016,-14.17773 -19.31097,-14.11399 -37.08159,-32.89892 -61.44531,-34.22461 -0.98297,-0.0535 -1.95826,-0.078 -2.92578,-0.0742 z m -7.0918,15.82422 a 36.737789,36.737789 0 0 1 36.73828,36.73828 36.737789,36.737789 0 0 1 -36.73828,36.73828 36.737789,36.737789 0 0 1 -36.73633,-36.73828 36.737789,36.737789 0 0 1 36.73633,-36.73828 z m 65.92383,64.43164 a 23.390211,23.390211 0 0 1 23.39063,23.39062 23.390211,23.390211 0 0 1 -23.39063,23.38867 23.390211,23.390211 0 0 1 -23.39062,-23.38867 23.390211,23.390211 0 0 1 23.39062,-23.39062 z" />
    <path
       d="m 154.32365,28.84086 a 20.240907,16.305269 0 0 0 -20.2436,16.304717 v 2.893168 a 19.876168,16.01145 0 0 0 19.87839,16.013219 H 293.18478 A 18.768597,15.119236 0 0 0 311.95051,48.932303 V 43.862448 A 18.649244,15.023088 0 0 0 293.30313,28.84086 Z"
       style="fill:#73c2fb;fill-opacity:1;stroke:#000000;stroke-width:0;stroke-dasharray:none"
       id="path16" />
  </g>
</svg>
